<mxfile host="Electron" agent="Mozilla/5.0 (Macintosh; Intel Mac OS X 10_15_7) AppleWebKit/537.36 (KHTML, like Gecko) draw.io/26.2.15 Chrome/134.0.6998.205 Electron/35.2.1 Safari/537.36" version="26.2.15">
  <diagram name="Page-1" id="Rbeo5ipN_9hbcztRzzpB">
    <mxGraphModel dx="1183" dy="1869" grid="1" gridSize="10" guides="1" tooltips="1" connect="1" arrows="1" fold="1" page="1" pageScale="1" pageWidth="850" pageHeight="1100" math="0" shadow="0">
      <root>
        <mxCell id="0" />
        <mxCell id="1" parent="0" />
        <mxCell id="lJQ_GXMZ5h9TFEpl5mX8-7" style="rounded=0;orthogonalLoop=1;jettySize=auto;html=1;endArrow=none;startFill=0;fillColor=#f8cecc;strokeColor=#b85450;" parent="1" source="lJQ_GXMZ5h9TFEpl5mX8-1" target="lJQ_GXMZ5h9TFEpl5mX8-2" edge="1">
          <mxGeometry relative="1" as="geometry" />
        </mxCell>
        <mxCell id="lJQ_GXMZ5h9TFEpl5mX8-9" style="rounded=0;orthogonalLoop=1;jettySize=auto;html=1;endArrow=none;startFill=0;fillColor=#f8cecc;strokeColor=#b85450;" parent="1" source="lJQ_GXMZ5h9TFEpl5mX8-1" target="lJQ_GXMZ5h9TFEpl5mX8-3" edge="1">
          <mxGeometry relative="1" as="geometry" />
        </mxCell>
        <mxCell id="lJQ_GXMZ5h9TFEpl5mX8-1" value="Project&lt;div&gt;Manager&lt;/div&gt;" style="shape=umlActor;verticalLabelPosition=bottom;verticalAlign=top;html=1;fillColor=#f8cecc;strokeColor=#b85450;" parent="1" vertex="1">
          <mxGeometry x="60" y="140" width="30" height="60" as="geometry" />
        </mxCell>
        <mxCell id="W-ovFFAiYOI2EvLjgWCz-1" style="rounded=0;orthogonalLoop=1;jettySize=auto;html=1;endSize=10;endArrow=open;endFill=0;dashed=1;dashPattern=8 8;" edge="1" parent="1" source="lJQ_GXMZ5h9TFEpl5mX8-18" target="lJQ_GXMZ5h9TFEpl5mX8-2">
          <mxGeometry relative="1" as="geometry" />
        </mxCell>
        <mxCell id="W-ovFFAiYOI2EvLjgWCz-4" value="&amp;lt; extend &amp;gt;" style="edgeLabel;html=1;align=center;verticalAlign=middle;resizable=0;points=[];" vertex="1" connectable="0" parent="W-ovFFAiYOI2EvLjgWCz-1">
          <mxGeometry x="-0.1164" relative="1" as="geometry">
            <mxPoint y="1" as="offset" />
          </mxGeometry>
        </mxCell>
        <mxCell id="W-ovFFAiYOI2EvLjgWCz-2" style="rounded=0;orthogonalLoop=1;jettySize=auto;html=1;dashed=1;dashPattern=8 8;endArrow=open;endFill=0;endSize=10;startArrow=none;startFill=0;startSize=10;" edge="1" parent="1" source="lJQ_GXMZ5h9TFEpl5mX8-19" target="lJQ_GXMZ5h9TFEpl5mX8-2">
          <mxGeometry relative="1" as="geometry" />
        </mxCell>
        <mxCell id="W-ovFFAiYOI2EvLjgWCz-3" value="&amp;lt; extend &amp;gt;" style="edgeLabel;html=1;align=center;verticalAlign=middle;resizable=0;points=[];" vertex="1" connectable="0" parent="W-ovFFAiYOI2EvLjgWCz-2">
          <mxGeometry x="-0.0501" y="-2" relative="1" as="geometry">
            <mxPoint x="-1" as="offset" />
          </mxGeometry>
        </mxCell>
        <mxCell id="W-ovFFAiYOI2EvLjgWCz-5" style="rounded=0;orthogonalLoop=1;jettySize=auto;html=1;endArrow=open;endFill=0;dashed=1;dashPattern=8 8;endSize=10;" edge="1" parent="1" source="W-ovFFAiYOI2EvLjgWCz-16" target="lJQ_GXMZ5h9TFEpl5mX8-10">
          <mxGeometry relative="1" as="geometry">
            <mxPoint x="535.0889441572187" y="167.8785611434073" as="targetPoint" />
          </mxGeometry>
        </mxCell>
        <mxCell id="W-ovFFAiYOI2EvLjgWCz-18" value="&amp;lt; include &amp;gt;" style="edgeLabel;html=1;align=center;verticalAlign=middle;resizable=0;points=[];" vertex="1" connectable="0" parent="W-ovFFAiYOI2EvLjgWCz-5">
          <mxGeometry x="-0.1079" relative="1" as="geometry">
            <mxPoint as="offset" />
          </mxGeometry>
        </mxCell>
        <mxCell id="lJQ_GXMZ5h9TFEpl5mX8-2" value="Create report" style="ellipse;whiteSpace=wrap;html=1;fillColor=#f8cecc;strokeColor=#b85450;" parent="1" vertex="1">
          <mxGeometry x="230" y="-100" width="140" height="70" as="geometry" />
        </mxCell>
        <mxCell id="W-ovFFAiYOI2EvLjgWCz-6" style="rounded=0;orthogonalLoop=1;jettySize=auto;html=1;endArrow=open;endFill=0;endSize=10;dashed=1;dashPattern=8 8;" edge="1" parent="1" source="lJQ_GXMZ5h9TFEpl5mX8-3" target="W-ovFFAiYOI2EvLjgWCz-16">
          <mxGeometry relative="1" as="geometry" />
        </mxCell>
        <mxCell id="W-ovFFAiYOI2EvLjgWCz-17" value="&amp;lt; include &amp;gt;" style="edgeLabel;html=1;align=center;verticalAlign=middle;resizable=0;points=[];" vertex="1" connectable="0" parent="W-ovFFAiYOI2EvLjgWCz-6">
          <mxGeometry x="-0.1578" relative="1" as="geometry">
            <mxPoint as="offset" />
          </mxGeometry>
        </mxCell>
        <mxCell id="lJQ_GXMZ5h9TFEpl5mX8-3" value="Ask about project status" style="ellipse;whiteSpace=wrap;html=1;" parent="1" vertex="1">
          <mxGeometry x="230" y="200" width="140" height="70" as="geometry" />
        </mxCell>
        <mxCell id="lJQ_GXMZ5h9TFEpl5mX8-8" style="rounded=0;orthogonalLoop=1;jettySize=auto;html=1;endArrow=none;startFill=0;fillColor=#dae8fc;strokeColor=#6c8ebf;" parent="1" source="lJQ_GXMZ5h9TFEpl5mX8-4" target="lJQ_GXMZ5h9TFEpl5mX8-3" edge="1">
          <mxGeometry relative="1" as="geometry" />
        </mxCell>
        <mxCell id="lJQ_GXMZ5h9TFEpl5mX8-4" value="Developer" style="shape=umlActor;verticalLabelPosition=bottom;verticalAlign=top;html=1;fillColor=#dae8fc;strokeColor=#6c8ebf;" parent="1" vertex="1">
          <mxGeometry x="60" y="310" width="30" height="60" as="geometry" />
        </mxCell>
        <mxCell id="lJQ_GXMZ5h9TFEpl5mX8-10" value="Integrate&amp;nbsp;&lt;div&gt;Communication Channel&lt;/div&gt;" style="ellipse;whiteSpace=wrap;html=1;fillColor=#f8cecc;strokeColor=#b85450;" parent="1" vertex="1">
          <mxGeometry x="230" y="110" width="140" height="70" as="geometry" />
        </mxCell>
        <mxCell id="lJQ_GXMZ5h9TFEpl5mX8-17" value="Integrate Version&amp;nbsp;&lt;div&gt;Control System&lt;/div&gt;" style="ellipse;whiteSpace=wrap;html=1;fillColor=#f8cecc;strokeColor=#b85450;" parent="1" vertex="1">
          <mxGeometry x="230" y="20" width="140" height="70" as="geometry" />
        </mxCell>
        <mxCell id="lJQ_GXMZ5h9TFEpl5mX8-18" value="Filter by timeframe" style="ellipse;whiteSpace=wrap;html=1;" parent="1" vertex="1">
          <mxGeometry x="510" y="-60" width="140" height="70" as="geometry" />
        </mxCell>
        <mxCell id="lJQ_GXMZ5h9TFEpl5mX8-19" value="Filter by team member" style="ellipse;whiteSpace=wrap;html=1;" parent="1" vertex="1">
          <mxGeometry x="510" y="-140" width="140" height="70" as="geometry" />
        </mxCell>
        <mxCell id="W-ovFFAiYOI2EvLjgWCz-9" value="&amp;lt; include &amp;gt;" style="rounded=0;orthogonalLoop=1;jettySize=auto;html=1;endArrow=open;endFill=0;endSize=10;dashed=1;dashPattern=8 8;" edge="1" parent="1" source="lJQ_GXMZ5h9TFEpl5mX8-2" target="W-ovFFAiYOI2EvLjgWCz-16">
          <mxGeometry relative="1" as="geometry">
            <mxPoint x="359" y="264" as="sourcePoint" />
            <mxPoint x="521" y="316" as="targetPoint" />
          </mxGeometry>
        </mxCell>
        <mxCell id="W-ovFFAiYOI2EvLjgWCz-13" style="rounded=0;orthogonalLoop=1;jettySize=auto;html=1;endArrow=open;endFill=0;endSize=10;dashed=1;dashPattern=8 8;" edge="1" parent="1" source="W-ovFFAiYOI2EvLjgWCz-16" target="lJQ_GXMZ5h9TFEpl5mX8-17">
          <mxGeometry relative="1" as="geometry">
            <mxPoint x="794.3266884982177" y="-133.7839542655372" as="sourcePoint" />
            <mxPoint x="755" y="356" as="targetPoint" />
          </mxGeometry>
        </mxCell>
        <mxCell id="W-ovFFAiYOI2EvLjgWCz-25" value="&amp;lt; include &amp;gt;" style="edgeLabel;html=1;align=center;verticalAlign=middle;resizable=0;points=[];" vertex="1" connectable="0" parent="W-ovFFAiYOI2EvLjgWCz-13">
          <mxGeometry x="-0.1906" y="1" relative="1" as="geometry">
            <mxPoint y="-1" as="offset" />
          </mxGeometry>
        </mxCell>
        <mxCell id="W-ovFFAiYOI2EvLjgWCz-16" value="Retrieve Project Information" style="ellipse;whiteSpace=wrap;html=1;" vertex="1" parent="1">
          <mxGeometry x="510" y="100" width="140" height="70" as="geometry" />
        </mxCell>
        <mxCell id="W-ovFFAiYOI2EvLjgWCz-28" value="Upload Meeting Notes" style="ellipse;whiteSpace=wrap;html=1;" vertex="1" parent="1">
          <mxGeometry x="230" y="340" width="140" height="70" as="geometry" />
        </mxCell>
        <mxCell id="W-ovFFAiYOI2EvLjgWCz-32" style="rounded=0;orthogonalLoop=1;jettySize=auto;html=1;endArrow=none;startFill=0;fillColor=#f8cecc;strokeColor=#b85450;" edge="1" parent="1" source="lJQ_GXMZ5h9TFEpl5mX8-1" target="lJQ_GXMZ5h9TFEpl5mX8-10">
          <mxGeometry relative="1" as="geometry">
            <mxPoint x="100" y="196" as="sourcePoint" />
            <mxPoint x="238" y="161" as="targetPoint" />
          </mxGeometry>
        </mxCell>
        <mxCell id="W-ovFFAiYOI2EvLjgWCz-33" style="rounded=0;orthogonalLoop=1;jettySize=auto;html=1;endArrow=none;startFill=0;fillColor=#f8cecc;strokeColor=#b85450;" edge="1" parent="1" source="lJQ_GXMZ5h9TFEpl5mX8-1" target="lJQ_GXMZ5h9TFEpl5mX8-17">
          <mxGeometry relative="1" as="geometry">
            <mxPoint x="100" y="181" as="sourcePoint" />
            <mxPoint x="275" y="-42" as="targetPoint" />
          </mxGeometry>
        </mxCell>
        <mxCell id="W-ovFFAiYOI2EvLjgWCz-34" style="rounded=0;orthogonalLoop=1;jettySize=auto;html=1;endArrow=open;endFill=0;endSize=10;dashed=1;dashPattern=8 8;" edge="1" parent="1" source="W-ovFFAiYOI2EvLjgWCz-16" target="W-ovFFAiYOI2EvLjgWCz-28">
          <mxGeometry relative="1" as="geometry">
            <mxPoint x="800.1676447153523" y="377.420854983201" as="sourcePoint" />
            <mxPoint x="1028" y="130" as="targetPoint" />
          </mxGeometry>
        </mxCell>
        <mxCell id="W-ovFFAiYOI2EvLjgWCz-35" value="&amp;lt; include &amp;gt;" style="edgeLabel;html=1;align=center;verticalAlign=middle;resizable=0;points=[];" vertex="1" connectable="0" parent="W-ovFFAiYOI2EvLjgWCz-34">
          <mxGeometry x="-0.2827" y="-1" relative="1" as="geometry">
            <mxPoint x="11" y="-8" as="offset" />
          </mxGeometry>
        </mxCell>
        <mxCell id="W-ovFFAiYOI2EvLjgWCz-36" style="rounded=0;orthogonalLoop=1;jettySize=auto;html=1;endArrow=none;startFill=0;fillColor=#f8cecc;strokeColor=#b85450;" edge="1" parent="1" source="lJQ_GXMZ5h9TFEpl5mX8-1" target="W-ovFFAiYOI2EvLjgWCz-28">
          <mxGeometry relative="1" as="geometry">
            <mxPoint x="100" y="203" as="sourcePoint" />
            <mxPoint x="245" y="232" as="targetPoint" />
          </mxGeometry>
        </mxCell>
        <mxCell id="W-ovFFAiYOI2EvLjgWCz-37" style="rounded=0;orthogonalLoop=1;jettySize=auto;html=1;endArrow=none;startFill=0;fillColor=#dae8fc;strokeColor=#6c8ebf;" edge="1" parent="1" source="lJQ_GXMZ5h9TFEpl5mX8-4" target="W-ovFFAiYOI2EvLjgWCz-28">
          <mxGeometry relative="1" as="geometry">
            <mxPoint x="110" y="213" as="sourcePoint" />
            <mxPoint x="255" y="242" as="targetPoint" />
          </mxGeometry>
        </mxCell>
      </root>
    </mxGraphModel>
  </diagram>
</mxfile>
